<svg width="29" height="29" viewBox="0 0 29 29" fill="none" xmlns="http://www.w3.org/2000/svg">
<path fill-rule="evenodd" clip-rule="evenodd" d="M14.7951 3.83397C16.9046 3.41435 19.0912 3.62971 21.0784 4.45282C23.0655 5.27592 24.7639 6.66979 25.9589 8.45817C27.1539 10.2466 27.7917 12.3492 27.7917 14.5C27.7917 16.6508 27.1539 18.7535 25.9589 20.5418C24.7639 22.3302 23.0655 23.7241 21.0784 24.5472C19.0912 25.3703 16.9046 25.5856 14.7951 25.1661C12.6856 24.7464 10.7478 23.7106 9.22688 22.1898C8.75499 21.7179 8.75499 20.9529 9.22688 20.481C9.69876 20.009 10.4638 20.009 10.9357 20.481C12.1186 21.6638 13.6258 22.4694 15.2666 22.7958C16.9072 23.1222 18.608 22.9547 20.1536 22.3145C21.6991 21.6742 23.0201 20.5901 23.9495 19.1992C24.879 17.8083 25.375 16.1729 25.375 14.5C25.375 12.8271 24.879 11.1918 23.9495 9.8008C23.0201 8.40984 21.6991 7.32571 20.1536 6.68553C18.608 6.04533 16.9072 5.87783 15.2666 6.2042C13.6258 6.53056 12.1186 7.33614 10.9357 8.51906C10.4638 8.99094 9.69876 8.99094 9.22688 8.51906C8.75499 8.04717 8.75499 7.2821 9.22688 6.81021C10.7478 5.28932 12.6856 4.25357 14.7951 3.83397Z" fill="black"/>
<path fill-rule="evenodd" clip-rule="evenodd" d="M6.8961 10.0206C7.36797 10.4925 7.36797 11.2576 6.8961 11.7294L5.33384 13.2917H13.2917C13.959 13.2917 14.5 13.8327 14.5 14.5C14.5 15.1674 13.959 15.7084 13.2917 15.7084H5.33384L6.8961 17.2706C7.36797 17.7425 7.36797 18.5076 6.8961 18.9794C6.4242 19.4513 5.65914 19.4513 5.18725 18.9794L1.56225 15.3544C1.09037 14.8826 1.09037 14.1175 1.56225 13.6456L5.18725 10.0206C5.65914 9.54871 6.4242 9.54871 6.8961 10.0206Z" fill="black"/>
</svg>
