<svg width="47" height="47" viewBox="0 0 47 47" fill="none" xmlns="http://www.w3.org/2000/svg">
<path d="M0 14.1C0 11.515 2.115 9.39995 4.7 9.39995H11.75L16.45 4.69995H30.55L35.25 9.39995H42.3C43.5465 9.39995 44.742 9.89513 45.6234 10.7765C46.5048 11.658 47 12.8534 47 14.1V37.5999C47 38.8465 46.5048 40.0419 45.6234 40.9234C44.742 41.8048 43.5465 42.2999 42.3 42.2999H4.7C3.45348 42.2999 2.25802 41.8048 1.3766 40.9234C0.495177 40.0419 0 38.8465 0 37.5999V14.1ZM23.5 37.5999C26.6163 37.5999 29.605 36.362 31.8085 34.1585C34.0121 31.9549 35.25 28.9662 35.25 25.85C35.25 22.7337 34.0121 19.745 31.8085 17.5414C29.605 15.3379 26.6163 14.1 23.5 14.1C20.3837 14.1 17.395 15.3379 15.1915 17.5414C12.9879 19.745 11.75 22.7337 11.75 25.85C11.75 28.9662 12.9879 31.9549 15.1915 34.1585C17.395 36.362 20.3837 37.5999 23.5 37.5999ZM23.5 32.9C22.5742 32.9 21.6574 32.7176 20.8021 32.3633C19.9467 32.009 19.1695 31.4897 18.5149 30.8351C17.8602 30.1804 17.3409 29.4032 16.9866 28.5479C16.6324 27.6925 16.45 26.7758 16.45 25.85C16.45 24.9241 16.6324 24.0074 16.9866 23.152C17.3409 22.2967 17.8602 21.5195 18.5149 20.8648C19.1695 20.2102 19.9467 19.6909 20.8021 19.3366C21.6574 18.9823 22.5742 18.8 23.5 18.8C25.3698 18.8 27.163 19.5427 28.4851 20.8648C29.8072 22.187 30.55 23.9802 30.55 25.85C30.55 27.7197 29.8072 29.5129 28.4851 30.8351C27.163 32.1572 25.3698 32.9 23.5 32.9Z" fill="#3D3D3D"/>
</svg>
