<svg width="70" height="70" viewBox="0 0 70 70" fill="none" xmlns="http://www.w3.org/2000/svg">
<path d="M35 70C54.33 70 70 54.33 70 35C70 15.67 54.33 0 35 0C15.67 0 0 15.67 0 35C0 54.33 15.67 70 35 70Z" fill="#6DC180"/>
<path d="M35 0V70C54.33 70 70 54.33 70 35C70 15.67 54.33 0 35 0Z" fill="#5CA15D"/>
<path d="M30.0001 50.3032L14.8485 35.1515L20.1515 29.8484L30.0001 39.6967L48.5985 21.0984L53.9015 26.4015L30.0001 50.3032Z" fill="#F2F2F4"/>
<path d="M35 45.3033L53.9015 26.4015L48.5985 21.0984L35 34.6968V45.3033Z" fill="#DFDFE1"/>
</svg>
