<svg width="70" height="70" viewBox="0 0 70 70" fill="none" xmlns="http://www.w3.org/2000/svg">
<path d="M35 70C54.33 70 70 54.33 70 35C70 15.67 54.33 0 35 0C15.67 0 0 15.67 0 35C0 54.33 15.67 70 35 70Z" fill="#EDC92C"/>
<path d="M53.1676 34.9978C53.1676 45.0346 45.0336 53.1676 34.9984 53.1676C24.9626 53.1676 16.8291 45.0342 16.8291 34.9978C16.8291 24.9632 24.9626 16.8291 34.9984 16.8291C45.0336 16.8285 53.1676 24.9632 53.1676 34.9978Z" fill="#E9C29C"/>
<path d="M53.1676 34.9978L40.7792 23.849C40.7792 23.849 38.142 28.2173 31.1049 31.4006C24.321 34.4684 16.8291 34.9973 16.8291 34.9973C16.8291 24.9627 24.9626 16.8287 34.9984 16.8287C45.0336 16.8285 53.1676 24.9632 53.1676 34.9978Z" fill="#A46434"/>
<path d="M29.5508 40.3266C30.9255 40.3266 32.04 39.1493 32.04 37.697C32.04 36.2447 30.9255 35.0674 29.5508 35.0674C28.1761 35.0674 27.0616 36.2447 27.0616 37.697C27.0616 39.1493 28.1761 40.3266 29.5508 40.3266Z" fill="#343433"/>
<path d="M40.3388 40.3266C41.7136 40.3266 42.828 39.1493 42.828 37.697C42.828 36.2447 41.7136 35.0674 40.3388 35.0674C38.9641 35.0674 37.8496 36.2447 37.8496 37.697C37.8496 39.1493 38.9641 40.3266 40.3388 40.3266Z" fill="#343433"/>
<path d="M42.1129 36.7012C42.1129 37.2809 41.668 37.7524 41.1169 37.7524C40.5692 37.7524 40.1238 37.2804 40.1238 36.7012C40.1238 36.1192 40.5692 35.6489 41.1169 35.6489C41.6679 35.6488 42.1129 36.1192 42.1129 36.7012Z" fill="white"/>
<path d="M31.2988 36.7012C31.2988 37.2809 30.854 37.7524 30.3024 37.7524C29.7537 37.7524 29.3083 37.2804 29.3083 36.7012C29.3083 36.1192 29.7537 35.6489 30.3024 35.6489C30.854 35.6488 31.2988 36.1192 31.2988 36.7012Z" fill="white"/>
<path d="M20.3611 35.745C20.3611 39.6463 20.4004 42.8074 17.6796 42.8074C14.9583 42.8074 12.7527 39.6457 12.7527 35.745C12.7527 31.8443 14.9584 28.6819 17.6796 28.6819C20.4004 28.6815 20.3611 31.8443 20.3611 35.745Z" fill="#357180"/>
<path d="M57.2075 35.745C57.2075 39.6463 55.0018 42.8074 52.28 42.8074C49.5593 42.8074 49.5986 39.6457 49.5986 35.745C49.5986 31.8443 49.5593 28.6819 52.28 28.6819C55.0014 28.6815 57.2075 31.8443 57.2075 35.745Z" fill="#357180"/>
<path d="M35.1184 15.4955C46.1501 15.4955 55.2479 25.9214 56.5942 36.2727C56.7048 35.4039 56.7705 34.5187 56.7705 33.6177C56.7705 22.0141 47.0757 10.1861 35.1178 10.1861C23.1599 10.1861 13.4661 22.0141 13.4661 33.6179C13.4661 34.5182 13.5318 35.4036 13.6434 36.2729C14.9898 25.9214 24.0872 15.4955 35.1184 15.4955Z" fill="#357180"/>
<path d="M43.0578 55.186C43.4905 56.5958 42.0298 57.9354 39.8884 58.5926C37.7462 59.2519 35.7379 58.9799 35.3052 57.5702C34.8696 56.1593 36.1745 54.1442 38.3172 53.4865C40.4575 52.8267 42.6229 53.7756 43.0578 55.186Z" fill="#24626C"/>
<path d="M58.5212 35.9639H58.3974V35.8971C58.3974 35.1521 57.7934 34.5485 57.0484 34.5485C56.3034 34.5485 55.6994 35.1521 55.6994 35.8971V37.7318C55.6994 38.2122 55.9513 38.6299 56.3288 38.8686C54.9046 47.2117 49.6543 52.6669 43.1621 55.4585C43.1583 55.4486 43.1621 55.4381 43.1583 55.428C42.8228 54.3377 40.8145 53.9873 38.674 54.6465C36.5318 55.3048 35.0696 56.7224 35.4049 57.8127C35.7398 58.9021 37.7466 59.2525 39.8887 58.593C40.9127 58.2791 41.7721 57.7889 42.3641 57.2457C51.9391 55.3772 58.5212 46.5617 58.5212 35.9639Z" fill="#357180"/>
</svg>
