<svg width="70" height="70" viewBox="0 0 70 70" fill="none" xmlns="http://www.w3.org/2000/svg">
<path d="M34.9999 69.9999C54.3299 69.9999 69.9999 54.3299 69.9999 34.9999C69.9999 15.67 54.3299 0 34.9999 0C15.67 0 0 15.67 0 34.9999C0 54.3299 15.67 69.9999 34.9999 69.9999Z" fill="#EFC849"/>
<path d="M21.3272 13.8524C20.024 13.8524 18.9668 14.9097 18.9668 16.2134V53.9883C18.9668 55.2921 20.024 56.3487 21.3272 56.3487H48.4784C49.7821 56.3487 50.8387 55.2921 50.8387 53.9883V24.7858L39.4589 13.8524H21.3272Z" fill="#F5F5F5"/>
<path d="M50.8393 24.7858H41.8199C40.5161 24.7858 39.4595 23.7291 39.4595 22.4254V13.8524L50.8393 24.7858Z" fill="#E1E1E1"/>
<path d="M47.5177 28.0099C47.5177 28.4167 47.1877 28.7472 46.7804 28.7472H23.2006C22.7938 28.7472 22.4639 28.4167 22.4639 28.0099C22.4639 27.6031 22.7938 27.2726 23.2006 27.2726H46.7804C47.1877 27.2727 47.5177 27.6031 47.5177 28.0099Z" fill="#C9C9C8"/>
<path d="M47.5177 31.8786C47.5177 32.2854 47.1877 32.6159 46.7804 32.6159H23.2006C22.7938 32.6159 22.4639 32.2854 22.4639 31.8786C22.4639 31.4718 22.7938 31.1413 23.2006 31.1413H46.7804C47.1877 31.1413 47.5177 31.4718 47.5177 31.8786Z" fill="#C9C9C8"/>
<path d="M47.5177 35.5631C47.5177 35.9699 47.1877 36.3004 46.7804 36.3004H23.2006C22.7938 36.3004 22.4639 35.9699 22.4639 35.5631C22.4639 35.1558 22.7938 34.8264 23.2006 34.8264H46.7804C47.1877 34.8259 47.5177 35.1559 47.5177 35.5631Z" fill="#C9C9C8"/>
<path d="M47.5177 39.4318C47.5177 39.8386 47.1877 40.1691 46.7804 40.1691H23.2006C22.7938 40.1691 22.4639 39.8386 22.4639 39.4318C22.4639 39.025 22.7938 38.6945 23.2006 38.6945H46.7804C47.1877 38.6945 47.5177 39.025 47.5177 39.4318Z" fill="#C9C9C8"/>
<path d="M35.5437 42.5632H23.2006C22.7938 42.5632 22.4639 42.8937 22.4639 43.3005C22.4639 43.7073 22.7938 44.0378 23.2006 44.0378H35.5437C35.9511 44.0378 36.281 43.7073 36.281 43.3005C36.281 42.8937 35.9511 42.5632 35.5437 42.5632Z" fill="#C9C9C8"/>
<path d="M48.4795 61.3066C53.1342 61.3066 56.9076 57.5332 56.9076 52.8785C56.9076 48.2238 53.1342 44.4505 48.4795 44.4505C43.8249 44.4505 40.0515 48.2238 40.0515 52.8785C40.0515 57.5332 43.8249 61.3066 48.4795 61.3066Z" fill="#49A0AE"/>
<path d="M54.9841 50.1148C54.6155 50.117 54.2468 50.117 53.8788 50.118C53.0487 48.2605 51.4232 46.9175 49.3685 46.596C47.0794 46.2378 44.8886 47.3006 43.581 49.1714C43.0013 50.0015 44.3653 50.7797 44.9406 49.9561C46.7323 47.3901 50.5583 47.6222 52.1307 50.1224C51.7903 50.1235 51.4504 50.1247 51.1094 50.1247C51.0143 50.1247 50.9457 50.1678 50.9044 50.2275C50.8359 50.301 50.8104 50.4076 50.8828 50.5187C51.5311 51.5246 52.1793 52.531 52.8276 53.5368C52.9358 53.7065 53.1713 53.7043 53.2785 53.5358C53.9223 52.5267 54.5645 51.5175 55.2089 50.5078C55.3153 50.3413 55.1738 50.1148 54.9841 50.1148Z" fill="white"/>
<path d="M52.2104 55.638C50.4186 58.2029 46.5926 57.9708 45.0202 55.4705C45.3606 55.4695 45.7005 55.4683 46.0415 55.4683C46.1367 55.4683 46.2052 55.4252 46.2465 55.3655C46.3151 55.2919 46.3405 55.1853 46.2691 55.0732C45.6203 54.0674 44.9726 53.0621 44.3232 52.0563C44.2149 51.8878 43.9795 51.8888 43.8727 52.0573C43.2289 53.0664 42.5861 54.0756 41.9417 55.0853C41.8356 55.2516 41.9766 55.4782 42.1666 55.4772C42.5353 55.4761 42.904 55.4761 43.272 55.4749C44.1021 57.3324 45.7275 58.6754 47.7823 58.997C50.0714 59.3552 52.2622 58.2923 53.5698 56.4227C54.1497 55.5916 52.7858 54.8134 52.2104 55.638Z" fill="white"/>
</svg>
