<svg width="37" height="37" viewBox="0 0 37 37" fill="none" xmlns="http://www.w3.org/2000/svg">
<g clip-path="url(#clip0_15_42)">
<path d="M35.7666 2.7749H6.16664C5.48648 2.7749 4.93329 3.32802 4.93329 4.00826V5.24162H3.7C3.01984 5.24162 2.46664 5.79474 2.46664 6.47497V7.70833H1.23336C0.553121 7.70826 0 8.26138 0 8.94155V32.9915C0 33.6717 0.553121 34.2249 1.23336 34.2249H30.8334C31.5135 34.2249 32.0667 33.6718 32.0667 32.9915V31.7582H33.3C33.9802 31.7582 34.5334 31.2051 34.5334 30.5248V29.2915H35.7667C36.4469 29.2915 37.0001 28.7384 37.0001 28.0581V4.00812C37 3.32802 36.4469 2.7749 35.7666 2.7749ZM1.23336 8.94155H30.8334L30.834 22.7179L27.5977 19.0191C27.3628 18.7502 26.904 18.7502 26.6691 19.0191L22.7619 23.4844L12.1261 14.0309C11.8924 13.8225 11.5409 13.8225 11.3072 14.0309L1.23336 22.9855V8.94155ZM30.8346 31.1471V32.9915H1.23336V24.6345L11.7167 15.3161L22.4073 24.8183C22.5294 24.9274 22.6921 24.9768 22.8556 24.9731C23.0202 24.9626 23.1732 24.8874 23.2811 24.7635L27.1334 20.3617L30.8341 24.5914L30.8347 31.1367C30.8347 31.1379 30.8334 31.1398 30.8334 31.1416C30.8334 31.1434 30.8346 31.1453 30.8346 31.1471ZM33.3 30.5249H32.0666V8.94155C32.0666 8.26138 31.5135 7.70819 30.8333 7.70819H3.7V6.4749H33.3V30.5249ZM35.7666 28.0583H34.5333V6.4749C34.5333 5.79474 33.9802 5.24154 33.2999 5.24154H6.16664V4.00826H35.7666V28.0583Z" fill="#3D3D3D"/>
<path d="M22.2 12.6416C20.8396 12.6416 19.7334 13.7479 19.7334 15.1082C19.7334 16.4686 20.8396 17.575 22.2 17.575C23.5604 17.575 24.6667 16.4686 24.6667 15.1083C24.6667 13.748 23.5604 12.6416 22.2 12.6416ZM22.2 16.3416C21.5198 16.3416 20.9667 15.7885 20.9667 15.1082C20.9667 14.4281 21.5198 13.8749 22.2 13.8749C22.8802 13.8749 23.4334 14.428 23.4334 15.1082C23.4334 15.7885 22.8802 16.3416 22.2 16.3416Z" fill="#3D3D3D"/>
</g>
<defs>
<clipPath id="clip0_15_42">
<rect width="37" height="37" fill="white"/>
</clipPath>
</defs>
</svg>
