<svg width="26" height="25" viewBox="0 0 26 25" fill="none" xmlns="http://www.w3.org/2000/svg">
<path d="M22.3538 12.1501L13.5995 4.92833C13.1945 4.59404 12.6095 4.59404 12.2043 4.92833L3.45003 12.1501C3.19744 12.3584 3.05127 12.6684 3.05127 12.9957V23.892C3.05127 24.4976 3.54197 24.9883 4.14756 24.9883H21.6559C22.2615 24.9883 22.7522 24.4976 22.7522 23.892V12.9957C22.7525 12.6684 22.6063 12.3584 22.3538 12.1501ZM14.0611 22.7957H11.7428V16.726H14.061V22.7957H14.0611ZM20.5599 22.7957H16.2537V15.6298C16.2537 15.0242 15.763 14.5335 15.1574 14.5335H10.6465C10.0409 14.5335 9.55023 15.0242 9.55023 15.6298V22.7957H5.244V13.5126L12.902 7.19517L20.5599 13.5126V22.7957Z" fill="#3D3D3D"/>
<path d="M25.393 9.95082C22.9511 7.99474 20.6486 6.12432 18.1486 4.06578C17.4018 3.3947 16.6168 2.75929 15.8573 2.14449C15.1137 1.54256 14.3447 0.920008 13.6354 0.281528C13.2182 -0.0938426 12.5855 -0.0938426 12.1685 0.281528C11.459 0.920008 10.6901 1.54256 9.94655 2.14449C9.18719 2.75915 8.40224 3.3947 7.6553 4.06578C5.15547 6.12447 2.85296 7.99474 0.411006 9.95082C-0.0615687 10.3293 -0.137871 11.0193 0.240716 11.4918C0.619155 11.9642 1.30938 12.0406 1.78166 11.6621C4.23765 9.69502 6.55273 7.81422 9.06762 5.74311C9.08004 5.73302 9.09218 5.7225 9.10416 5.71168C9.81368 5.0732 10.5825 4.45065 11.3261 3.84872C11.8464 3.42774 12.3784 2.99697 12.902 2.55173C13.4256 2.99697 13.9578 3.42774 14.4779 3.84872C15.2215 4.45065 15.9905 5.0732 16.6999 5.71168C16.7118 5.7225 16.724 5.73302 16.7364 5.74311C19.2511 7.81422 21.5664 9.69502 24.0224 11.6621C24.2247 11.824 24.4666 11.9027 24.707 11.9027C25.0283 11.9027 25.3468 11.762 25.5633 11.4916C25.9419 11.0193 25.8656 10.3293 25.393 9.95082Z" fill="#3D3D3D"/>
</svg>
