<svg width="25" height="25" viewBox="0 0 25 25" fill="none" xmlns="http://www.w3.org/2000/svg">
<path d="M12.5 0.000732422C5.6075 0.000732422 0 5.60801 0 12.5001C0 19.3922 5.6075 24.9994 12.5 24.9994C19.3925 24.9994 25 19.3922 25 12.5001C25 5.60801 19.3925 0.000732422 12.5 0.000732422ZM12.5 22.7268C6.86068 22.7268 2.27273 18.1391 2.27273 12.5001C2.27273 6.86111 6.86068 2.27346 12.5 2.27346C18.1393 2.27346 22.7273 6.86111 22.7273 12.5001C22.7273 18.1392 18.1393 22.7268 12.5 22.7268Z" fill="#3D3D3D"/>
<path d="M12.5 9.84912C11.8724 9.84912 11.3636 10.3579 11.3636 10.9855V18.56C11.3636 19.1875 11.8724 19.6963 12.5 19.6963C13.1276 19.6963 13.6364 19.1875 13.6364 18.56V10.9855C13.6364 10.358 13.1276 9.84912 12.5 9.84912Z" fill="#3D3D3D"/>
<path d="M12.5 5.30396C12.2008 5.30396 11.9083 5.42517 11.6962 5.63653C11.4849 5.84789 11.3636 6.14108 11.3636 6.44032C11.3636 6.73956 11.4849 7.03199 11.6962 7.24411C11.9076 7.45547 12.2008 7.57668 12.5 7.57668C12.7993 7.57668 13.0917 7.45547 13.3037 7.24411C13.5151 7.03199 13.6364 6.73956 13.6364 6.44032C13.6364 6.14108 13.5151 5.84789 13.3037 5.63653C13.0917 5.42509 12.7993 5.30396 12.5 5.30396Z" fill="#3D3D3D"/>
</svg>
