<svg width="35" height="35" viewBox="0 0 35 35" fill="none" xmlns="http://www.w3.org/2000/svg">
<g clip-path="url(#clip0_69_577)">
<path d="M14.8109 25.4966L14.601 25.2867L14.8214 25.0662C15.1693 24.7184 15.1693 24.1544 14.8214 23.8066L14.1916 23.1768L18.7629 18.6055C21.1253 19.8813 24.1436 19.5229 26.1369 17.5296C28.5679 15.0986 28.5679 11.1432 26.1369 8.71229C23.706 6.28137 19.7506 6.28137 17.3197 8.71229C15.3263 10.7057 14.9679 13.7239 16.2437 16.0863L8.71232 23.6177C8.01777 24.3122 8.01777 25.4424 8.71232 26.1369C9.40687 26.8315 10.537 26.8315 11.2315 26.1369L11.8613 26.7667C12.2092 27.1145 12.7731 27.1145 13.121 26.7667L13.3414 26.5463L13.5513 26.7562C13.8991 27.104 14.4631 27.104 14.8109 26.7562C15.1588 26.4084 15.1588 25.8444 14.8109 25.4966ZM21.7283 13.1209C21.0326 12.4252 21.0326 11.2974 21.7283 10.6017C22.424 9.90602 23.5518 9.90602 24.2475 10.6017C24.9432 11.2974 24.9432 12.4252 24.2475 13.1209C23.5518 13.8166 22.424 13.8166 21.7283 13.1209Z" fill="black"/>
</g>
<defs>
<clipPath id="clip0_69_577">
<rect width="24.6421" height="24.6421" fill="white" transform="translate(17.4246) rotate(45)"/>
</clipPath>
</defs>
</svg>
