<svg width="13" height="13" viewBox="0 0 13 13" fill="none" xmlns="http://www.w3.org/2000/svg">
<path d="M6.50002 0C3.79433 0 1.59308 2.20125 1.59308 4.9069C1.59308 6.02536 2.37963 7.6826 3.93092 9.83255C5.06339 11.4021 6.21233 12.6807 6.22378 12.6935L6.49998 13L6.77618 12.6935C6.78767 12.6807 7.93657 11.4021 9.06904 9.83255C10.6203 7.68257 11.4069 6.02536 11.4069 4.9069C11.4069 2.20125 9.20567 0 6.50002 0ZM6.49998 11.883C5.12221 10.2958 2.33669 6.71335 2.33669 4.9069C2.33666 2.61126 4.20434 0.743577 6.50002 0.743577C8.7957 0.743577 10.6633 2.61126 10.6633 4.9069C10.6633 6.71227 7.87776 10.2954 6.49998 11.883Z" fill="black"/>
<path d="M6.50002 6.75461C7.52045 6.75461 8.34766 5.92739 8.34766 4.90697C8.34766 3.88654 7.52045 3.05933 6.50002 3.05933C5.4796 3.05933 4.65238 3.88654 4.65238 4.90697C4.65238 5.92739 5.4796 6.75461 6.50002 6.75461Z" fill="black"/>
</svg>
