<svg width="70" height="70" viewBox="0 0 70 70" fill="none" xmlns="http://www.w3.org/2000/svg">
<path d="M35 70C54.33 70 70 54.33 70 35C70 15.67 54.33 0 35 0C15.67 0 0 15.67 0 35C0 54.33 15.67 70 35 70Z" fill="#C2D5D8"/>
<path d="M39.2021 69.7391C42.4599 69.3492 45.5809 68.5202 48.499 67.2984V26.7969H39.2021V69.7391Z" fill="#5AB3A3"/>
<path d="M48.499 67.299C51.9066 65.8738 55.0358 63.9188 57.7959 61.5464V26.7969H48.499V67.299Z" fill="#3F8C7F"/>
<path d="M57.9688 26.7969L48.6719 30.0617L39.375 26.7969L48.6719 23.5315L57.9688 26.7969Z" fill="#45998B"/>
<path d="M25.5303 68.6924C28.4905 69.5231 31.6055 69.9798 34.8271 69.9956V21.3281H25.5303V68.6924Z" fill="#CC665C"/>
<path d="M34.8271 69.9956C34.8851 69.9956 34.942 70 35 70C38.1571 70 41.2141 69.5751 44.124 68.7909V21.3281H34.8271V69.9956Z" fill="#BF5347"/>
<path d="M44.2969 21.3281L35 24.593L25.7031 21.3281L35 18.0627L44.2969 21.3281Z" fill="#CC584C"/>
<path d="M11.8584 61.2467C14.6086 63.6738 17.7395 65.6764 21.1553 67.1491V29.5312H11.8584C11.8584 29.5312 11.8584 61.2467 11.8584 61.2467Z" fill="#FFDC80"/>
<path d="M21.1553 67.1491C24.0707 68.4064 27.1911 69.2727 30.4521 69.6954V29.5312H21.1553V67.1491Z" fill="#E6BF5A"/>
<path d="M30.625 29.5312L21.3281 32.7961L12.0312 29.5312L21.3281 26.2659L30.625 29.5312Z" fill="#FFD464"/>
</svg>
