<svg width="25" height="25" viewBox="0 0 25 25" fill="none" xmlns="http://www.w3.org/2000/svg">
<g clip-path="url(#clip0_815_583)">
<path d="M0 12.5006C0 5.59649 5.59645 0.000488281 12.4998 0.000488281C19.4035 0.000488281 25 5.59654 25 12.5006C25 19.4038 19.4035 25.0002 12.4998 25.0002C5.59645 25.0002 0 19.4038 0 12.5006Z" fill="#E04F5F"/>
<path d="M19.3259 10.3943H5.67426C5.47392 10.3943 5.31152 10.5568 5.31152 10.7571V14.2432C5.31152 14.4436 5.47397 14.606 5.67426 14.606H19.3259C19.5262 14.606 19.6886 14.4435 19.6886 14.2432V10.7571C19.6886 10.5568 19.5261 10.3943 19.3259 10.3943Z" fill="white"/>
</g>
<defs>
<clipPath id="clip0_815_583">
<rect width="25" height="25" fill="white"/>
</clipPath>
</defs>
</svg>
