<svg width="22" height="22" viewBox="0 0 22 22" fill="none" xmlns="http://www.w3.org/2000/svg">
<path d="M21.7227 20.4242L15.4106 14.1076C16.655 12.6152 17.4034 10.7081 17.4034 8.62508C17.4034 3.87295 13.5034 0.0090332 8.70622 0.0090332C3.90901 0.0090332 0 3.87746 0 8.62959C0 13.3817 3.89999 17.2456 8.6972 17.2456C10.7351 17.2456 12.6107 16.5468 14.0986 15.379L20.4332 21.7137C20.8029 22.0834 21.353 22.0834 21.7227 21.7137C22.0924 21.344 22.0924 20.7939 21.7227 20.4242ZM1.84855 8.62959C1.84855 4.89642 4.92345 1.86209 8.6972 1.86209C12.4709 1.86209 15.5459 4.89642 15.5459 8.62959C15.5459 12.3628 12.4709 15.3971 8.6972 15.3971C4.92345 15.3971 1.84855 12.3582 1.84855 8.62959Z" fill="#C0C0C0"/>
</svg>
