<svg width="70" height="70" viewBox="0 0 70 70" fill="none" xmlns="http://www.w3.org/2000/svg">
<g clip-path="url(#clip0_154_3413)">
<path d="M35.0001 70.0002C54.3301 70.0002 70.0002 54.3301 70.0002 35.0001C70.0002 15.6701 54.3301 0 35.0001 0C15.6701 0 0 15.6701 0 35.0001C0 54.3301 15.6701 70.0002 35.0001 70.0002Z" fill="#E84849"/>
<path d="M60.449 49.3173L36.4343 10.6127C36.1547 10.1612 35.6617 9.88709 35.1312 9.88709C34.6 9.88709 34.1071 10.1618 33.8274 10.6127L9.74788 49.4234C9.4544 49.8964 9.43948 50.4917 9.7108 50.9781C9.9811 51.4644 10.4951 51.7662 11.051 51.7662H59.2121H59.2188C60.066 51.7662 60.7524 51.0792 60.7524 50.2326C60.7513 49.8892 60.6391 49.5731 60.449 49.3173Z" fill="#EDC92C"/>
<path d="M33.3537 35.76L32.8558 28.3101C32.7625 26.8582 32.7166 25.8159 32.7166 25.1837C32.7166 24.3232 32.9421 23.6518 33.3924 23.1698C33.8434 22.6863 34.438 22.4458 35.1737 22.4458C36.0657 22.4458 36.6625 22.7542 36.9627 23.371C37.2628 23.9884 37.4136 24.8781 37.4136 26.0382C37.4136 26.7229 37.3771 27.4187 37.3053 28.1222L36.6361 35.7904C36.5637 36.7034 36.4083 37.403 36.1691 37.891C35.9304 38.3778 35.5357 38.6211 34.9869 38.6211C34.4265 38.6211 34.0379 38.3863 33.8208 37.9138C33.6025 37.4427 33.4466 36.7243 33.3537 35.76ZM35.0802 45.9942C34.4475 45.9942 33.8948 45.7902 33.4239 45.3808C32.952 44.9718 32.7166 44.3987 32.7166 43.6626C32.7166 43.0193 32.9421 42.4721 33.3924 42.0206C33.8434 41.5697 34.3961 41.3441 35.0493 41.3441C35.7031 41.3441 36.2592 41.5691 36.7212 42.0206C37.1826 42.4715 37.4136 43.0192 37.4136 43.6626C37.4136 44.3882 37.1804 44.9581 36.7127 45.3731C36.2463 45.7868 35.7025 45.9942 35.0802 45.9942Z" fill="black"/>
</g>
<defs>
<clipPath id="clip0_154_3413">
<rect width="70" height="70" fill="white"/>
</clipPath>
</defs>
</svg>
